Coordinates
version=1
nRows=12
nColumns=24
inDegrees=yes

Units are S.I. units (second, meters, Newtons, ...)
Angles are in degrees.

endheader
time	pelvis_tilt	pelvis_list	pelvis_rotation	pelvis_tx	pelvis_ty	pelvis_tz	hip_flexion_r	hip_adduction_r	hip_rotation_r	knee_angle_r	ankle_angle_r	subtalar_angle_r	mtp_angle_r	hip_flexion_l	hip_adduction_l	hip_rotation_l	knee_angle_l	ankle_angle_l	subtalar_angle_l	mtp_angle_l	lumbar_extension	lumbar_bending	lumbar_rotation
      4.92500000	     33.65532851	      2.06056163	      3.91988577	      1.49092338	      0.67305339	     -0.31318942	    -15.60637595	     -4.65402253	    -14.09485483	    -64.16145911	      9.98541243	      0.65137241	      0.00000000	    -25.79933824	      2.01458558	     -1.93939348	    -21.01202347	     20.30588217	      8.03779727	      0.00000000	    -64.04052987	     -0.00949523	      1.94469136
      4.93000000	     33.49468252	      2.04151136	      4.36714411	      1.49723251	      0.67403951	     -0.31312739	    -14.73011231	     -4.37393821	    -14.25071834	    -63.10803987	     10.56772293	      1.14763464	      0.00000000	    -26.64669910	      1.68674217	     -1.78102217	    -20.12870395	     20.27459729	      8.37047960	      0.00000000	    -63.94341402	      0.33069898	      1.74952548
      4.93500000	     33.40878086	      2.07791912	      4.90438766	      1.50359238	      0.67498647	     -0.31314903	    -14.03671390	     -4.14661863	    -14.55016969	    -61.90214903	     11.10432836	      1.61535801	      0.00000000	    -27.58463864	      1.35375439	     -1.58720747	    -19.22412834	     20.27445451	      8.74393235	      0.00000000	    -63.91025865	      0.72155578	      1.48146004
      4.94000000	     33.46497367	      2.16418049	      5.54124203	      1.50993545	      0.67596110	     -0.31319728	    -13.60506457	     -3.92269869	    -14.97498489	    -60.51269003	     11.58434585	      1.90219701	      0.00000000	    -28.67157528	      0.99269344	     -1.29615356	    -18.31375132	     20.17732323	      9.04985606	      0.00000000	    -64.02880916	      1.17201955	      1.11397804
      4.94500000	     33.40640425	      2.21737487	      6.04838456	      1.51626978	      0.67672508	     -0.31315982	    -13.01496725	     -3.72439729	    -15.23698660	    -59.10339568	     11.99562532	      2.22775395	      0.00000000	    -29.61709836	      0.67113311	     -1.15864303	    -17.43600306	     20.12727064	      9.30610872	      0.00000000	    -64.03674980	      1.53450030	      0.81352411
      4.95000000	     33.14105167	      2.27186718	      6.35136346	      1.52251372	      0.67719992	     -0.31299459	    -12.11539614	     -3.62108379	    -15.27332295	    -57.74573519	     12.34756178	      2.40226802	      0.00000000	    -30.30593033	      0.49470202	     -1.19137642	    -16.61337339	     20.01431389	      9.36548724	      0.00000000	    -63.87298821	      1.72713703	      0.60645193
      4.95500000	     33.25424253	      2.40188968	      7.03791824	      1.52890803	      0.67789655	     -0.31300795	    -11.91700551	     -3.44444842	    -15.75792095	    -56.02010027	     12.69725319	      2.68996769	      0.00000000	    -31.41668559	      0.09186125	     -0.97275325	    -15.77786032	     20.02773502	      9.83465143	      0.00000000	    -64.04236586	      2.18046787	      0.19062672
      4.96000000	     33.17280086	      2.51423518	      7.48641003	      1.53523815	      0.67830020	     -0.31293340	    -11.41664140	     -3.36376243	    -15.98826316	    -54.35774075	     12.97082178	      2.90295704	      0.00000000	    -32.29845929	     -0.15388888	     -0.95984485	    -14.98156415	     20.00067307	     10.02660582	      0.00000000	    -64.04119731	      2.46889393	     -0.11462493
      4.96500000	     32.90323777	      2.65456496	      7.73036074	      1.54149173	      0.67842773	     -0.31268472	    -10.63532095	     -3.38823301	    -15.97295141	    -52.75477598	     13.19737337	      2.92595946	      0.00000000	    -32.94858251	     -0.22183950	     -1.03483704	    -14.24872365	     19.87100549	     10.02621584	      0.00000000	    -63.89213319	      2.55913486	     -0.39202409
      4.97000000	     32.98723807	      2.84985932	      8.34560018	      1.54787663	      0.67875835	     -0.31260349	    -10.51575930	     -3.32240273	    -16.40754599	    -50.79648271	     13.37820495	      3.04221427	      0.00000000	    -33.98772596	     -0.55444200	     -1.01395298	    -13.50323939	     19.92780860	     10.48261753	      0.00000000	    -64.05209885	      2.91273156	     -0.84029359
      4.97500000	     32.99580387	      3.05964980	      8.76739106	      1.55420697	      0.67889702	     -0.31243837	    -10.27315944	     -3.33596105	    -16.62289421	    -48.84604579	     13.51513883	      3.06681907	      0.00000000	    -34.93541677	     -0.73065021	     -1.03047308	    -12.79760569	     19.85601745	     10.60300945	      0.00000000	    -64.15476372	      3.11758732	     -1.24364392
      4.98000000	     32.71922186	      3.29301840	      8.95609729	      1.56048985	      0.67868361	     -0.31212510	     -9.62906658	     -3.49302234	    -16.57099393	    -46.99523228	     13.66473940	      3.03690756	      0.00000000	    -35.52941237	     -0.68789655	     -1.17428795	    -12.20898958	     19.75913077	     10.58491961	      0.00000000	    -64.00099874	      3.09659187	     -1.52494195
